<?xml version="1.0" encoding="UTF-8" standalone="no"?>
<!-- Created with Inkscape (http://www.inkscape.org/) -->

<svg
   width="63.072617mm"
   height="61.77882mm"
   viewBox="0 0 63.072617 61.77882"
   version="1.1"
   id="svg1"
   sodipodi:docname="favicon.svg"
   inkscape:version="1.3.2 (091e20e, 2023-11-25)"
   xmlns:inkscape="http://www.inkscape.org/namespaces/inkscape"
   xmlns:sodipodi="http://sodipodi.sourceforge.net/DTD/sodipodi-0.dtd"
   xmlns="http://www.w3.org/2000/svg"
   xmlns:svg="http://www.w3.org/2000/svg">
  <sodipodi:namedview
     id="namedview1"
     pagecolor="#505050"
     bordercolor="#eeeeee"
     borderopacity="1"
     inkscape:showpageshadow="0"
     inkscape:pageopacity="0"
     inkscape:pagecheckerboard="0"
     inkscape:deskcolor="#505050"
     inkscape:document-units="mm"
     inkscape:zoom="1.0107294"
     inkscape:cx="118.72615"
     inkscape:cy="116.74738"
     inkscape:window-width="1312"
     inkscape:window-height="843"
     inkscape:window-x="0"
     inkscape:window-y="38"
     inkscape:window-maximized="0"
     inkscape:current-layer="svg1" />
  <defs
     id="defs1" />
  <g
     id="layer1"
     transform="translate(-3.8813896,-3.234493)">
    <rect
       style="fill:none;stroke-width:0.225119"
       id="rect2"
       width="63.072613"
       height="61.77882"
       x="-66.954002"
       y="3.234493"
       ry="0.39470789"
       transform="scale(-1,1)" />
    <path
       style="font-size:192px;font-family:Damascus;-inkscape-font-specification:Damascus;white-space:pre;fill:#a239c6;stroke-width:0.264583;fill-opacity:1"
       d="m 12.312514,31.322534 q 0.5588,-0.508 2.1336,-1.016 1.574799,-0.508 3.301999,-0.6096 l -5.486399,-5.1308 q -0.762,-0.7112 -1.3208,-1.8288 -0.5588,-1.1176 -0.5588,-2.54 0,-1.27 0.6604,-2.794 0.6604,-1.524 2.2352,-3.3528 l 2.946399,1.524 q -1.269999,1.27 -1.727199,2.4384 -0.4572,1.1176 -0.4572,2.032 0,0.9652 0.3048,1.6256 0.3556,0.6604 0.711199,1.0668 l 1.4224,1.4732 q 0.254,-0.7112 0.5588,-1.5748 0.3556,-0.8636 0.8636,-1.8288 l 2.9464,1.4224 q -0.762,0.9652 -1.0668,1.8288 -0.3048,0.8636 -0.3048,1.5748 0,0.8128 0.3556,1.5748 l 3.6068,3.2004 q 0.4064,-0.4064 0.8128,-0.7112 0.4064,-0.3556 0.8636,-0.6604 0.2032,-0.2032 0.3556,-0.3556 0.2032,-0.1524 0.4064,-0.3556 0.254,-0.6604 0.254,-1.3716 0,-0.7112 -0.3048,-1.5748 -0.254,-0.8636 -0.9652,-1.7272 l 2.8956,-1.4732 q 0.508,0.9652 0.8128,1.8288 0.3556,0.8128 0.508,1.524 l 0.9144,-0.8128 q 0.3556,-0.5588 0.508,-1.016 0.1524,-0.4572 0.1524,-1.1176 0,-0.7112 -0.3048,-1.5748 -0.254,-0.8636 -0.9652,-1.778 l 2.8956,-1.4224 q 0.5588,1.0668 0.9144,1.9812 0.3556,0.9144 0.508,1.6256 0.5588,-0.508 0.9652,-0.9144 0.4064,-0.4064 0.508,-0.4572 0.762,-0.6604 1.0668,-1.3716 0.3556,-0.7112 0.3556,-1.4732 0,-1.8796 -2.4892,-4.4196 l 2.9464,-1.524 q 1.6256,1.3716 2.3368,2.9464 0.762,1.524 0.762,2.794 0,1.4732 -0.508,2.5908 -0.4572,1.0668 -1.7272,2.1844 l -4.4704,4.0132 q 1.2192,-0.1524 2.4384,-0.1524 2.9464,0 5.08,0.8128 2.1336,0.762 3.81,1.9304 1.6764,1.1176 3.2004,2.2352 1.5748,1.0668 3.4036,1.6256 2.54,0.762 4.318,1.5748 1.778,0.8128 2.6924,1.9304 0.9652,1.1176 0.9652,2.9464 0,1.4224 -0.7112,2.8956 -0.6604,1.4224 -2.6924,2.3876 -1.9812,0.9144 -5.9436,0.9144 -1.4224,0 -3.0988,0.508 -1.6764,0.4572 -3.302,0.9652 -1.5748,0.508 -2.8448,0.508 -1.778,0 -3.4036,-0.3556 -1.5748,-0.4064 -2.8956,-0.9144 1.016,3.7084 1.7272,7.111999 0.762,3.4036 0.8636,5.6388 h -3.1496 q -0.2032,-2.3876 -0.6604,-4.572 -0.4064,-2.184399 -1.1684,-4.775199 -0.762,-2.6416 -1.9812,-6.2992 l 1.6764,-1.524 q 0.9652,0.762 3.302,1.6764 2.3876,0.8636 5.3848,0.8636 1.6256,0 2.8956,-0.3556 1.27,-0.4064 2.6924,-0.8128 1.4732,-0.4572 3.5052,-0.6096 1.7272,-0.1524 3.2512,-0.3556 1.5748,-0.2032 2.54,-0.762 0.9652,-0.6096 0.9652,-1.778 0,-1.4224 -1.0668,-2.1336 -1.0668,-0.762 -2.794,-1.2192 -1.6764,-0.508 -3.556,-1.2192 -1.2192,-0.4572 -2.4892,-1.3716 -1.27,-0.9144 -2.7432,-1.9304 -1.4732,-1.016 -3.4036,-1.6764 -1.8796,-0.7112 -4.3688,-0.7112 -4.6736,0 -8.636,2.8448 -3.9116,2.8448 -6.5024,8.6868 -2.5908,5.842 -3.3528,14.833599 h 9.5504 l 1.4732,3.2004 H 13.887314 q 0.254,-4.826 1.168399,-10.058399 0.9144,-5.2832 2.9464,-9.8044 h -0.3556 q -1.524,0 -2.743199,-1.016 -1.2192,-1.0668 -1.9304,-2.6924 -0.6604,-1.6764 -0.6604,-3.4544 z m 21.488399,1.6764 q 0,-1.016 0.7112,-1.7272 0.7112,-0.7112 1.6764,-0.7112 1.016,0 1.7272,0.7112 0.7112,0.7112 0.7112,1.7272 0,0.9652 -0.7112,1.6764 -0.7112,0.7112 -1.7272,0.7112 -0.9652,0 -1.6764,-0.7112 -0.7112,-0.7112 -0.7112,-1.6764 z m -13.2588,0.4064 q 0,-0.508 -0.508,-0.7112 -0.4572,-0.254 -1.1176,-0.3048 -0.6096,-0.1016 -1.0668,-0.1016 -0.6604,0 -1.4224,0.1524 -0.7112,0.1524 -1.4224,0.508 0.254,0.9652 1.0668,1.8288 0.8128,0.8636 1.9812,0.8636 0.9652,0 1.778,-0.7112 0.1524,-0.254 0.3048,-0.508 0.1524,-0.3048 0.3556,-0.508 0.0508,-0.1524 0.0508,-0.508 z"
       id="text1"
       aria-label="ð‚‚" />
  </g>
</svg>
